<?xml version="1.0" encoding="UTF-8"?>
<svg xmlns="http://www.w3.org/2000/svg" width="964" height="871" viewBox="0 0 964 871" fill="none">
  <rect x="2.83203" y="364.111" width="570.839" height="351.081" fill="white"></rect>
  <path d="M712.373 681.324C690.219 676.508 603.399 619.983 562.758 592.323V711.939C592.787 742.553 628.695 759.584 681.671 787.276C724.052 809.429 755.516 796.506 765.951 787.276C836.265 758.861 892.371 693.966 911.635 665.07L781.001 603.666L712.373 681.324Z" fill="white"></path>
  <path d="M250.574 295.362C235.422 328.856 248.912 355.837 257.551 365.141H443.357C384.4 344.426 352.042 319.537 343.233 309.683C344.332 310.021 348.199 309.581 354.879 305.118C361.558 300.656 352.096 294.13 346.529 291.426C351.981 293.116 364.886 295.026 372.901 289.144C380.915 283.261 368.633 276.55 361.49 273.929C370.365 276.972 381.522 270.887 383.551 264.547C385.173 259.476 367.491 250.939 358.447 247.305C366.561 248.065 382.942 247.406 383.551 238.683C384.159 229.961 370.026 228.847 362.883 229.38C365.217 226.378 370.187 218.674 371.387 211.871C372.888 203.366 360.382 201.865 354.879 207.368C350.476 211.771 328.698 223.877 318.359 229.38C294.346 228.88 269.513 253.495 250.574 295.362Z" fill="white"></path>
  <path d="M659.527 199.588L277.637 379.044V403.417L624.707 566.801L643.063 544.526L575.777 517.934V394.276L710.375 448.118L712.783 447.048L717.419 449.01L707.269 431.998C629.059 416.356 641.794 320.473 657.938 274.486C637.421 254.332 650.448 216.156 659.527 199.588Z" fill="#41FFD1"></path>
  <rect x="364.133" y="206.717" width="137.04" height="88.8953" fill="#41FFD1" stroke="#300161" stroke-width="4"></rect>
  <path d="M376.012 282.603H489.915" stroke="#2E186A" stroke-width="4" stroke-linecap="round" stroke-linejoin="round"></path>
  <path d="M380.512 270.436L489.914 270.436" stroke="#2E186A" stroke-width="4" stroke-linecap="round" stroke-linejoin="round"></path>
  <path d="M383.394 234.753H412.459" stroke="#2E186A" stroke-width="4" stroke-linecap="round" stroke-linejoin="round"></path>
  <path d="M383.394 222.728H412.459" stroke="#2E186A" stroke-width="4" stroke-linecap="round" stroke-linejoin="round"></path>
  <path d="M868.416 484.555C864.916 483.419 858.242 481.741 849.629 479.757L866.395 487.089C840.366 522.895 792.439 555.445 742.68 544.379C666.92 527.513 710.32 454.639 712.917 450.075L724.074 454.467L723.578 453.565C715.614 450.327 610.235 407.514 573.031 392.65C574.186 393.02 574.105 517.375 574.105 517.375L643.29 544.352C643.29 544.352 615.15 574.773 606.781 600.631C605.32 605.14 604.896 612.455 605.193 621.429C660.841 655.44 715.28 683.787 715.28 683.787L783.212 602.94L911.491 664.206C872.501 726.546 796.416 774.844 755.352 793.324C738.713 800.774 719.848 801.549 702.654 795.488C674.262 785.451 647.09 772.248 621.653 756.129L604.364 844.778L896.988 844.056L881.43 705.442C1010.56 559.08 923.18 502.296 868.416 484.555Z" fill="#2E186A"></path>
  <path d="M710.158 430.476L724.101 454.467L712.945 450.075C710.329 454.638 666.893 527.513 742.708 544.378C792.439 555.445 840.393 522.895 866.423 487.089L833.954 472.893L800.132 395.266" fill="white"></path>
  <path d="M710.158 430.476L724.101 454.467L712.945 450.075C710.329 454.638 666.893 527.513 742.708 544.378C792.439 555.445 840.393 522.895 866.423 487.089L833.954 472.893L800.132 395.266" stroke="#2E186A" stroke-width="4" stroke-linecap="round" stroke-linejoin="round"></path>
  <path d="M229.53 715.155L197.918 831.204H395.95L365.565 715.651" fill="white"></path>
  <path d="M229.53 715.155L197.918 831.204H395.95L365.565 715.651" stroke="#2E186A" stroke-width="4" stroke-linecap="round" stroke-linejoin="round"></path>
  <path d="M294.225 791.98C307.439 791.98 318.152 781.268 318.152 768.053C318.152 754.838 307.439 744.125 294.225 744.125C281.01 744.125 270.297 754.838 270.297 768.053C270.297 781.268 281.01 791.98 294.225 791.98Z" stroke="#2E186A" stroke-width="4" stroke-linecap="round" stroke-linejoin="round"></path>
  <path d="M347.129 715.191L373.6 827.912" stroke="#2E186A" stroke-width="4" stroke-linecap="round" stroke-linejoin="round"></path>
  <path d="M3.17578 396.438V376.398C3.17578 373.767 4.22103 371.243 6.08158 369.383C7.94213 367.522 10.4656 366.477 13.0968 366.477H563.749C566.38 366.477 568.903 367.522 570.764 369.383C572.624 371.243 573.67 373.767 573.67 376.398V601.56" stroke="#2E186A" stroke-width="4" stroke-linecap="round" stroke-linejoin="round"></path>
  <path d="M564.777 714.722C564.435 714.758 564.092 714.776 563.749 714.776H13.0968C10.4656 714.776 7.94213 713.731 6.08158 711.87C4.22103 710.01 3.17578 707.486 3.17578 704.855V412.218" stroke="#2E186A" stroke-width="4" stroke-linecap="round" stroke-linejoin="round"></path>
  <path d="M524.796 566.801V420.811C524.796 418.532 523.751 416.346 521.89 414.735C520.03 413.123 517.506 412.218 514.875 412.218L40.6953 412.218C35.1725 412.218 30.6953 416.695 30.6953 422.218V471.072" stroke="#2E186A" stroke-width="4" stroke-linecap="round" stroke-linejoin="round"></path>
  <path d="M524.795 675.318C524.795 677.949 523.75 680.473 521.889 682.333C520.029 684.194 517.505 685.239 514.874 685.239H40.3976C37.7664 685.239 35.2429 684.194 33.3824 682.333C31.5218 680.473 30.4766 677.949 30.4766 675.318V496.325" stroke="#2E186A" stroke-width="4" stroke-linecap="round" stroke-linejoin="round"></path>
  <path d="M549.742 700.526V711.71" stroke="#2E186A" stroke-width="4" stroke-linecap="round" stroke-linejoin="round"></path>
  <path d="M549.742 369.228V584.992" stroke="#2E186A" stroke-width="4" stroke-linecap="round" stroke-linejoin="round"></path>
  <path d="M452.37 826.37H141.491C136.012 826.37 131.57 830.812 131.57 836.291V837.427C131.57 842.907 136.012 847.348 141.491 847.348H452.37C457.85 847.348 462.292 842.907 462.292 837.427V836.291C462.292 830.812 457.85 826.37 452.37 826.37Z" fill="#2E186A"></path>
  <path d="M416.795 500.392C416.795 500.392 411.789 471.098 421.061 451.4C437.106 417.326 436.88 471.603 445.899 498.408" stroke="#2E186A" stroke-width="4" stroke-linecap="round" stroke-linejoin="round"></path>
  <path d="M415.911 500.546C401.57 501.619 386.148 503.333 378.472 506.02C361.877 511.811 307.456 529.858 310.532 538.489C312.723 544.604 342.378 541.195 357.593 538.85" stroke="#2E186A" stroke-width="4" stroke-linecap="round" stroke-linejoin="round"></path>
  <path d="M407.539 573.275C423.494 574.926 441.216 581.266 450.136 576.324C450.136 576.324 537.216 737.558 702.671 795.488C719.865 801.549 738.73 800.774 755.369 793.323C796.433 774.843 872.491 726.582 911.535 664.206L783.211 602.939L715.271 683.804C715.271 683.804 543.421 594.317 498.298 542.601C456.973 499.31 447.791 498.922 447.791 498.922H446.447" stroke="#2E186A" stroke-width="4" stroke-linecap="round" stroke-linejoin="round"></path>
  <path d="M384.892 518.151C384.892 518.151 348.735 538.976 351.242 552.974C353.749 566.972 364.852 563.157 364.852 563.157" stroke="#2E186A" stroke-width="4" stroke-linecap="round" stroke-linejoin="round"></path>
  <path d="M392.747 532.861C392.747 532.861 362.136 554.146 365.689 567.91C369.243 581.673 380.021 577.055 380.021 577.055" stroke="#2E186A" stroke-width="4" stroke-linecap="round" stroke-linejoin="round"></path>
  <path d="M402.905 550.809C402.905 550.809 366.531 576.964 387.906 584.774C409.281 592.585 416.433 587.706 416.433 587.706C416.433 587.706 424.551 576.071 402.138 572.608" stroke="#2E186A" stroke-width="4" stroke-linecap="round" stroke-linejoin="round"></path>
  <path d="M2.85547 844.877L961.042 844.877" stroke="#2E186A" stroke-width="4" stroke-linecap="round" stroke-linejoin="round"></path>
  <path d="M91.1757 868.877L900.55 868.877" stroke="#2E186A" stroke-width="4" stroke-linecap="round" stroke-linejoin="round"></path>
  <path d="M655.459 292.187C649.677 311.317 633.154 402.076 692.933 424.587C752.712 447.099 808.783 401.913 830.023 346.031C851.263 290.149 837.969 235.52 800.45 220.395C762.93 205.27 697.352 153.735 655.459 292.187Z" stroke="#2E186A" stroke-width="4" stroke-linecap="round" stroke-linejoin="round"></path>
  <path d="M879.989 172.383C850.632 148.78 798.194 141.684 761.694 141.963C649.081 148.078 629.876 259.133 660.671 276.286C679.015 224.517 701.157 204.549 723.281 199.696C730.605 237.793 782.392 288.426 838.987 311.145C838.915 311.695 838.825 312.255 838.744 312.814C855.095 316.917 879.068 327.849 870.04 356.105C857.576 395.149 819.614 377.95 814.834 375.605C810.516 382.154 805.671 388.34 800.349 394.103L814.681 425.138L908.721 452.525C910.515 453.183 912.44 453.409 914.339 453.184C916.237 452.96 918.056 452.29 919.647 451.23C921.238 450.171 922.557 448.751 923.497 447.086C924.436 445.421 924.97 443.558 925.054 441.648C927.408 390.483 973.733 249.839 879.989 172.383Z" fill="#2E186A"></path>
  <path d="M815.375 374.937C815.375 374.937 856.728 397.845 870.04 356.15C880.132 324.529 854.545 316.998 838.915 314.04" stroke="#2E186A" stroke-width="4" stroke-linecap="round" stroke-linejoin="round"></path>
  <path d="M699.336 374.405C699.336 374.405 710.258 386.445 724.075 372.944" stroke="#2E186A" stroke-width="4" stroke-linecap="round" stroke-linejoin="round"></path>
  <path d="M706.172 340.051L687.656 335.325L718.989 265.544" stroke="#2E186A" stroke-width="4" stroke-linecap="round" stroke-linejoin="round"></path>
  <path d="M775.402 284.746C775.402 284.746 766.131 267.61 751.809 273.923" stroke="#2E186A" stroke-width="4" stroke-linecap="round" stroke-linejoin="round"></path>
  <path d="M697.036 260.764C697.036 260.764 685.483 245.044 672.18 253.305" stroke="#2E186A" stroke-width="4" stroke-linecap="round" stroke-linejoin="round"></path>
  <path d="M747.588 309.347C748.748 304.058 746.916 299.163 743.495 298.413C740.075 297.662 736.362 301.342 735.202 306.63C734.042 311.919 735.874 316.815 739.295 317.565C742.715 318.315 746.428 314.636 747.588 309.347Z" fill="#2E186A"></path>
  <path d="M681.994 295.172C683.154 289.883 681.322 284.988 677.901 284.238C674.481 283.488 670.768 287.167 669.608 292.456C668.448 297.744 670.281 302.64 673.701 303.39C677.121 304.14 680.835 300.461 681.994 295.172Z" fill="#2E186A"></path>
  <path d="M153.223 649.743L153.223 588.165L215.391 588.165L215.391 649.743C195.502 658.055 173.112 658.055 153.223 649.743Z" fill="white" stroke="#300161" stroke-width="4"></path>
  <path d="M259.3 561.283C259.695 573.261 255.248 628.403 217.132 632.212C179.015 636.022 153.506 601.176 149.832 565.514C146.157 529.852 162.3 500.252 186.377 497.284C210.454 494.316 256.415 474.586 259.3 561.283Z" fill="white" stroke="#2E186A" stroke-width="4" stroke-linecap="round" stroke-linejoin="round"></path>
  <path d="M147.709 457.176C168.366 448.034 199.847 452.024 220.954 457.825C285.262 478.765 279.233 546.082 258.74 551.264C256.108 518.433 246.363 503.441 234.293 497.212C224.164 518.155 186.333 539.494 150.03 543.915C149.987 544.245 149.952 544.583 149.913 544.92C139.804 544.771 124.225 547.402 125.091 565.17C126.281 589.719 150.935 585.618 154.067 584.997C155.557 589.459 151.873 593.919 154.067 598.08L154.067 615.064L87.7814 615.064C86.6397 615.168 85.4895 615.002 84.4242 614.578C83.3589 614.155 82.4085 613.486 81.6501 612.626C80.8918 611.766 80.347 610.739 80.0598 609.63C79.7726 608.52 79.7512 607.358 79.9974 606.238C86.5379 576.227 81.423 487.575 147.709 457.176Z" fill="#2E186A"></path>
  <path d="M153.854 584.526C153.854 584.526 126.353 591.412 125.081 565.195C124.118 545.314 140.108 544.903 149.622 545.603" stroke="#2E186A" stroke-width="4" stroke-linecap="round" stroke-linejoin="round"></path>
  <path d="M221.177 602.145C221.177 602.145 212.988 607.435 207.067 597.477" stroke="#2E186A" stroke-width="4" stroke-linecap="round" stroke-linejoin="round"></path>
  <path d="M222.522 581.183L233.981 581.305L226.606 536.03" stroke="#2E186A" stroke-width="4" stroke-linecap="round" stroke-linejoin="round"></path>
  <path d="M190.949 538.441C190.949 538.441 198.968 529.944 206.292 535.815" stroke="#2E186A" stroke-width="4" stroke-linecap="round" stroke-linejoin="round"></path>
  <path d="M240.062 536.652C240.062 536.652 249.185 529.328 255.618 536.17" stroke="#2E186A" stroke-width="4" stroke-linecap="round" stroke-linejoin="round"></path>
  <path d="M203.267 556.993C203.412 553.75 205.23 551.196 207.328 551.29C209.426 551.383 211.009 554.089 210.864 557.333C210.719 560.576 208.901 563.13 206.803 563.036C204.705 562.943 203.122 560.237 203.267 556.993Z" fill="#2E186A"></path>
  <path d="M243.462 558.913C243.607 555.669 245.425 553.116 247.523 553.209C249.621 553.303 251.204 556.009 251.059 559.252C250.914 562.496 249.096 565.05 246.998 564.956C244.901 564.862 243.317 562.157 243.462 558.913Z" fill="#2E186A"></path>
  <path d="M83.3819 826.46H24.9381C21.3717 826.46 18.4805 829.351 18.4805 832.918V836.552C18.4805 840.119 21.3717 843.01 24.9381 843.01H83.3819C86.9483 843.01 89.8395 840.119 89.8395 836.552V832.918C89.8395 829.351 86.9483 826.46 83.3819 826.46Z" fill="#2E186A"></path>
  <rect x="446.066" y="215.417" width="43.8479" height="43.3577" rx="4" fill="white"></rect>
  <circle cx="467.994" cy="227.431" r="8.04863" fill="#300161"></circle>
  <path d="M456.789 247.992C456.789 242.345 461.367 237.768 467.014 237.768H468.966C474.614 237.768 479.191 242.345 479.191 247.992V250.597C479.191 253.554 477.116 256.104 474.221 256.705C470.111 257.558 465.869 257.558 461.759 256.705C458.865 256.104 456.789 253.554 456.789 250.597V247.992Z" fill="#300161"></path>
  <circle cx="282.723" cy="391.556" r="12.2076" fill="#300161"></circle>
  <path d="M250.574 294.332C235.422 327.826 248.912 354.807 257.551 364.111H310.387L374.732 333.455C354.879 323.787 352.042 318.508 343.233 308.653C344.332 308.991 348.199 308.551 354.879 304.089C361.558 299.626 352.096 293.101 346.529 290.396C351.981 292.086 364.886 293.997 372.901 288.114C380.915 282.231 368.633 275.52 361.49 272.9C370.365 275.942 381.522 269.857 383.551 263.518C385.173 258.446 367.491 249.909 358.447 246.275C366.561 247.036 382.942 246.376 383.551 237.654C384.159 228.931 370.026 227.817 362.883 228.35C365.217 225.349 370.187 217.644 371.387 210.841C372.888 202.336 360.382 200.836 354.879 206.339C350.476 210.741 328.698 222.847 318.359 228.35C294.346 227.85 269.513 252.465 250.574 294.332Z" fill="white"></path>
  <path d="M368.515 219.637C371.509 214.713 372.682 209.716 368.74 206.451C358.242 197.666 343.198 224.751 305.85 231.903C276.394 237.549 213.855 320.119 258.825 366.36" stroke="#2E186A" stroke-width="4" stroke-linecap="round" stroke-linejoin="round"></path>
  <path d="M307.372 231.533C332.625 223.209 374.573 228.827 380.219 232.065C385.865 235.303 386.776 247.533 373.509 247.082C360.242 246.631 334.15 242.978 334.15 242.978C353.992 248.606 378.496 256.706 381.554 260.331C386.235 265.86 378.379 276.196 364.977 271.984L326.483 261.296C326.483 261.296 368.602 277.531 373.211 281.246C377.82 284.962 373.211 300.511 347.687 288.958C322.163 277.404 319.845 278.802 319.845 278.802C319.845 278.802 350.294 294.396 355.705 298.969C361.117 303.542 343.98 320.047 316.445 300.619C316.445 300.619 311.367 320.958 285.672 311.839" stroke="#2E186A" stroke-width="4" stroke-linecap="round" stroke-linejoin="round"></path>
  <path d="M442.137 365.548C420.762 356.755 354.525 328.399 343.27 310.396" stroke="#2E186A" stroke-width="4" stroke-linecap="round" stroke-linejoin="round"></path>
  <circle cx="106.356" cy="379.964" r="67.5671" fill="#41FFD1" stroke="#300161" stroke-width="4"></circle>
  <path fill-rule="evenodd" clip-rule="evenodd" d="M96.7071 396.886L143.538 350.131L153.224 359.833L96.7071 416.258L64.168 383.771L73.8541 374.07L96.7071 396.886Z" fill="#300161"></path>
  <path d="M784.176 98.0971V11.1763H428.414V184.539" stroke="#300161" stroke-width="4" stroke-linecap="round"></path>
  <path d="M415.909 101.86H109.156V291.343" stroke="#300161" stroke-width="4" stroke-linecap="round"></path>
  <path d="M93.7656 279.841L109.208 295.283L124.65 279.841" stroke="#300161" stroke-width="4" stroke-linecap="round"></path>
  <path d="M412.973 171.987L428.415 187.429L443.857 171.987" stroke="#300161" stroke-width="4" stroke-linecap="round"></path>
  <path fill-rule="evenodd" clip-rule="evenodd" d="M285.399 59.7124V40.7534C285.399 30.8412 277.335 22.7776 267.423 22.7776C257.511 22.7776 249.447 30.8412 249.447 40.7534V59.7124H285.399ZM229.238 59.7124V40.7534C229.238 19.6999 246.369 2.56885 267.423 2.56885C288.476 2.56885 305.607 19.6999 305.607 40.7534V59.7124H315.466C317.675 59.7124 319.466 61.5033 319.466 63.7124V137.113C319.466 139.322 317.675 141.113 315.466 141.113H219.379C217.17 141.113 215.379 139.322 215.379 137.113V63.7124C215.379 61.5033 217.17 59.7124 219.379 59.7124H229.238Z" fill="white"></path>
  <path d="M285.399 59.7124V61.7124H287.399V59.7124H285.399ZM249.447 59.7124H247.447V61.7124H249.447V59.7124ZM229.238 59.7124V61.7124H231.238V59.7124H229.238ZM305.607 59.7124H303.607V61.7124H305.607V59.7124ZM287.399 59.7124V40.7534H283.399V59.7124H287.399ZM287.399 40.7534C287.399 29.7366 278.44 20.7776 267.423 20.7776V24.7776C276.23 24.7776 283.399 31.9457 283.399 40.7534H287.399ZM267.423 20.7776C256.406 20.7776 247.447 29.7366 247.447 40.7534H251.447C251.447 31.9457 258.615 24.7776 267.423 24.7776V20.7776ZM247.447 40.7534V59.7124H251.447V40.7534H247.447ZM249.447 61.7124H285.399V57.7124H249.447V61.7124ZM231.238 59.7124V40.7534H227.238V59.7124H231.238ZM231.238 40.7534C231.238 20.8044 247.474 4.56885 267.423 4.56885V0.568848C245.265 0.568848 227.238 18.5953 227.238 40.7534H231.238ZM267.423 4.56885C287.372 4.56885 303.607 20.8044 303.607 40.7534H307.607C307.607 18.5953 289.581 0.568848 267.423 0.568848V4.56885ZM303.607 40.7534V59.7124H307.607V40.7534H303.607ZM305.607 61.7124H315.466V57.7124H305.607V61.7124ZM315.466 61.7124C316.571 61.7124 317.466 62.6078 317.466 63.7124H321.466C321.466 60.3987 318.78 57.7124 315.466 57.7124V61.7124ZM317.466 63.7124V137.113H321.466V63.7124H317.466ZM317.466 137.113C317.466 138.218 316.571 139.113 315.466 139.113V143.113C318.78 143.113 321.466 140.427 321.466 137.113H317.466ZM315.466 139.113H219.379V143.113H315.466V139.113ZM219.379 139.113C218.274 139.113 217.379 138.218 217.379 137.113H213.379C213.379 140.427 216.065 143.113 219.379 143.113V139.113ZM217.379 137.113V63.7124H213.379V137.113H217.379ZM217.379 63.7124C217.379 62.6078 218.274 61.7124 219.379 61.7124V57.7124C216.065 57.7124 213.379 60.3987 213.379 63.7124H217.379ZM219.379 61.7124H229.238V57.7124H219.379V61.7124Z" fill="#300161"></path>
  <path fill-rule="evenodd" clip-rule="evenodd" d="M275.976 98.4076C278.379 96.1372 279.877 92.921 279.877 89.3547C279.877 82.4764 274.301 76.9004 267.423 76.9004C260.545 76.9004 254.969 82.4764 254.969 89.3547C254.969 93.2698 256.775 96.763 259.6 99.0461L255.621 118.72C255.371 119.959 256.318 121.117 257.582 121.117H277.308C278.584 121.117 279.534 119.938 279.262 118.691L278.521 115.286C278.321 114.367 277.507 113.712 276.567 113.712H268.414C267.171 113.712 266.23 112.591 266.444 111.367L267.164 107.256C267.332 106.299 268.163 105.601 269.134 105.601H274.753C275.979 105.601 276.916 104.509 276.73 103.297L275.976 98.4076Z" fill="#1B1464"></path>
</svg>
